<?xml version="1.0" encoding="UTF-8"?>
<svg xmlns="http://www.w3.org/2000/svg" xmlns:xlink="http://www.w3.org/1999/xlink" width="128pt" height="96pt" viewBox="0 0 128 96" version="1.1">
<g id="surface1">
<path style="fill-rule:evenodd;fill:rgb(0%,0%,0%);fill-opacity:1;stroke-width:6.613026;stroke-linecap:butt;stroke-linejoin:round;stroke:rgb(0%,0%,0%);stroke-opacity:1;stroke-miterlimit:4;" d="M 294.670662 50.177975 L 418.889559 50.177975 C 429.54497 50.177975 438.175448 58.814222 438.175448 69.463864 L 438.175448 147.565082 C 438.175448 158.214723 429.54497 166.850971 418.889559 166.850971 L 294.670662 166.850971 C 284.015252 166.850971 275.384773 158.214723 275.384773 147.565082 L 275.384773 69.463864 C 275.384773 58.814222 284.015252 50.177975 294.670662 50.177975 Z M 294.670662 50.177975 " transform="matrix(0.677106,0,0,0.677106,-177.577996,-25.475814)"/>
<path style="fill:none;stroke-width:6.613026;stroke-linecap:butt;stroke-linejoin:round;stroke:rgb(0%,0%,0%);stroke-opacity:1;stroke-miterlimit:4;" d="M 294.670662 50.177975 L 418.889559 50.177975 C 429.54497 50.177975 438.175448 58.814222 438.175448 69.463864 L 438.175448 147.565082 C 438.175448 158.214723 429.54497 166.850971 418.889559 166.850971 L 294.670662 166.850971 C 284.015252 166.850971 275.384773 158.214723 275.384773 147.565082 L 275.384773 69.463864 C 275.384773 58.814222 284.015252 50.177975 294.670662 50.177975 Z M 294.670662 50.177975 " transform="matrix(0.677106,0,0,0.677106,-177.577996,-25.475814)"/>
<path style=" stroke:none;fill-rule:evenodd;fill:rgb(100%,84.313725%,0%);fill-opacity:1;" d="M 40.160156 26.503906 L 57.804688 26.503906 L 57.804688 69.496094 L 40.160156 69.496094 Z M 40.160156 26.503906 "/>
<path style=" stroke:none;fill-rule:evenodd;fill:rgb(100%,84.313725%,0%);fill-opacity:1;" d="M 70.195312 26.503906 L 87.839844 26.503906 L 87.839844 69.496094 L 70.195312 69.496094 Z M 70.195312 26.503906 "/>
</g>
</svg>
