<?xml version="1.0" encoding="UTF-8" standalone="no"?>
<svg
   xmlns:dc="http://purl.org/dc/elements/1.1/"
   xmlns:cc="http://creativecommons.org/ns#"
   xmlns:rdf="http://www.w3.org/1999/02/22-rdf-syntax-ns#"
   xmlns:svg="http://www.w3.org/2000/svg"
   xmlns="http://www.w3.org/2000/svg"
   xmlns:sodipodi="http://sodipodi.sourceforge.net/DTD/sodipodi-0.dtd"
   xmlns:inkscape="http://www.inkscape.org/namespaces/inkscape"
   width="80"
   height="32"
   viewBox="0 0 21.166668 8.4666667"
   version="1.1"
   id="svg8"
   sodipodi:docname="logo.svg"
   inkscape:version="0.92.3 (2405546, 2018-03-11)">
  <sodipodi:namedview
     pagecolor="#ffffff"
     bordercolor="#666666"
     borderopacity="1"
     objecttolerance="10"
     gridtolerance="10"
     guidetolerance="10"
     inkscape:pageopacity="0"
     inkscape:pageshadow="2"
     inkscape:window-width="1592"
     inkscape:window-height="855"
     id="namedview15079"
     showgrid="false"
     units="px"
     inkscape:zoom="1.9196365"
     inkscape:cx="-52.874593"
     inkscape:cy="28.346457"
     inkscape:window-x="0"
     inkscape:window-y="20"
     inkscape:window-maximized="0"
     inkscape:current-layer="svg8" />
  <defs
     id="defs2" />
  <metadata
     id="metadata5">
    <rdf:RDF>
      <cc:Work
         rdf:about="">
        <dc:format>image/svg+xml</dc:format>
        <dc:type
           rdf:resource="http://purl.org/dc/dcmitype/StillImage" />
        <dc:title></dc:title>
      </cc:Work>
    </rdf:RDF>
  </metadata>
  <g
     id="layer1"
     transform="matrix(0.42526937,0,0,0.42526937,0.75690248,-118.98632)">
    <g
       id="text817"
       style="font-style:normal;font-weight:normal;font-size:14.73244286px;line-height:125%;font-family:Sans;letter-spacing:0px;word-spacing:0px;fill:#a9a9a9;fill-opacity:1;stroke:none;stroke-width:0.36831108px;stroke-linecap:butt;stroke-linejoin:miter;stroke-opacity:1"
       aria-label="VOC2MIX">
      <path
         id="path823"
         style="font-style:normal;font-variant:normal;font-weight:100;font-stretch:condensed;font-size:14.73244286px;font-family:'basic title font';-inkscape-font-specification:'basic title font, Thin Condensed';font-variant-ligatures:normal;font-variant-caps:normal;font-variant-numeric:normal;font-feature-settings:normal;text-align:start;writing-mode:lr-tb;text-anchor:start;fill:#a9a9a9;stroke-width:0.36831108px"
         d="M 5.6335748,284.18894 H 5.9576886 L 3.8067519,294.78157 H 3.6741599 3.644695 3.6152301 3.4826382 L 1.3169691,284.18894 h 0.3241137 l 2.0036122,9.87074 z"
         inkscape:connector-curvature="0" />
      <path
         id="path825"
         style="font-style:normal;font-variant:normal;font-weight:100;font-stretch:condensed;font-size:14.73244286px;font-family:'basic title font';-inkscape-font-specification:'basic title font, Thin Condensed';font-variant-ligatures:normal;font-variant-caps:normal;font-variant-numeric:normal;font-feature-settings:normal;text-align:start;writing-mode:lr-tb;text-anchor:start;fill:#a9a9a9;stroke-width:0.36831108px"
         d="m 12.951916,292.52751 q 0,0.0442 0,0.23571 0,0.19153 -0.05893,0.47144 -0.05893,0.26519 -0.191522,0.57457 -0.117859,0.30938 -0.368311,0.57456 -0.294648,0.29465 -0.839749,0.45671 -0.530368,0.14732 -1.031271,0.14732 -0.5009029,0 -1.0312709,-0.14732 -0.5303679,-0.16206 -0.8102843,-0.45671 -0.2504515,-0.26518 -0.3830435,-0.58929 -0.1178596,-0.32412 -0.1620569,-0.60403 -0.044197,-0.29465 -0.044197,-0.50091 0,-0.20625 0,-0.25045 v -6.0403 q 0,-0.5893 0.1620568,-1.046 0.1767894,-0.47144 0.5451004,-0.79556 0.1473245,-0.13259 0.3535787,-0.23571 0.2209866,-0.10313 0.4567057,-0.16206 0.2357191,-0.0737 0.471438,-0.10313 0.235719,-0.0442 0.441973,-0.0442 0.191522,0 0.427241,0.0295 0.250452,0.0295 0.486171,0.10313 0.250451,0.0589 0.456705,0.16205 0.220987,0.0884 0.368311,0.22099 0.751355,0.66296 0.751355,1.87102 z m -0.309381,-6.1287 q 0,-0.51564 -0.147325,-0.88395 -0.132592,-0.36831 -0.353578,-0.61876 -0.147325,-0.14732 -0.368311,-0.25045 -0.206255,-0.11786 -0.441974,-0.19152 -0.220986,-0.0737 -0.456705,-0.10313 -0.23572,-0.0295 -0.412509,-0.0295 -0.338846,0 -0.7218896,0.0884 -0.368311,0.0737 -0.6776923,0.30938 -0.3093813,0.22099 -0.5156355,0.6335 -0.1915218,0.39777 -0.1915218,1.046 v 6.05503 q 0,0 -0.014732,0.19153 0,0.17678 0.044197,0.44197 0.044197,0.26518 0.1473244,0.55983 0.1031271,0.29465 0.3241138,0.53037 0.2357191,0.25045 0.7071572,0.38304 0.4714378,0.11786 0.8986788,0.11786 0.220987,0 0.456706,-0.0295 0.235719,-0.0295 0.456706,-0.0884 0.235719,-0.0737 0.42724,-0.16205 0.191522,-0.10313 0.309382,-0.23572 0.220986,-0.23572 0.324113,-0.51564 0.103128,-0.27991 0.147325,-0.51563 0.0442,-0.25046 0.0442,-0.41251 0,-0.17679 0,-0.17679 z"
         inkscape:connector-curvature="0" />
      <path
         id="path827"
         style="font-style:normal;font-variant:normal;font-weight:100;font-stretch:condensed;font-size:14.73244286px;font-family:'basic title font';-inkscape-font-specification:'basic title font, Thin Condensed';font-variant-ligatures:normal;font-variant-caps:normal;font-variant-numeric:normal;font-feature-settings:normal;text-align:start;writing-mode:lr-tb;text-anchor:start;fill:#a9a9a9;stroke-width:0.36831108px"
         d="M 19.553891,292.39491 H 19.24451 Z m 0,0 q 0,0.0147 0,0.23572 0,0.20626 -0.05893,0.51564 -0.0442,0.30938 -0.17679,0.64823 -0.117859,0.33884 -0.368311,0.60403 -0.574565,0.60403 -1.591103,0.60403 -1.016539,0 -1.546907,-0.60403 -0.265184,-0.27992 -0.397776,-0.60403 -0.117859,-0.32412 -0.162057,-0.60403 -0.0442,-0.29465 -0.0442,-0.50091 0.01473,-0.20625 0.01473,-0.25045 v -6.05503 q 0,-1.1786 0.707158,-1.84156 0.279916,-0.25045 0.648227,-0.39777 0.383044,-0.14733 0.78082,-0.14733 0.795551,0 1.443779,0.53037 0.368311,0.30938 0.559833,0.85448 0.206254,0.53037 0.206254,1.16386 H 19.24451 q 0,-0.57456 -0.176789,-1.0018 -0.162057,-0.42724 -0.441973,-0.69243 -0.265184,-0.27991 -0.604031,-0.41251 -0.338846,-0.13259 -0.662959,-0.13259 -0.338847,0 -0.677693,0.13259 -0.324114,0.11786 -0.589298,0.36832 -0.250451,0.25045 -0.412508,0.64822 -0.147324,0.39778 -0.147324,0.92815 v 6.06976 0.0147 q 0,0 0,0.19152 0,0.17679 0.02946,0.44197 0.0442,0.25045 0.147325,0.5451 0.117859,0.29465 0.338846,0.53037 0.471438,0.51563 1.311188,0.51563 0.869214,0 1.355384,-0.51563 0.220987,-0.23572 0.324114,-0.53037 0.11786,-0.30938 0.162057,-0.5893 0.0442,-0.27991 0.0442,-0.47143 0,-0.19153 0,-0.19153 z"
         inkscape:connector-curvature="0" />
      <path
         id="path829"
         style="font-style:normal;font-variant:normal;font-weight:100;font-stretch:condensed;font-size:14.73244286px;font-family:'basic title font';-inkscape-font-specification:'basic title font, Thin Condensed';font-variant-ligatures:normal;font-variant-caps:normal;font-variant-numeric:normal;font-feature-settings:normal;text-align:start;writing-mode:lr-tb;text-anchor:start;fill:#a9a9a9;stroke-width:0.36831108px"
         d="m 22.078665,294.8847 v -0.14733 q 0,-0.66296 0.176789,-1.28172 0.191522,-0.6335 0.574566,-1.29646 0.338846,-0.57456 0.736622,-1.10493 0.412508,-0.5451 0.839749,-1.06073 0.486171,-0.5893 0.839749,-1.03128 0.368311,-0.4567 0.604031,-0.85448 0.250451,-0.39777 0.368311,-0.79555 0.132592,-0.39777 0.132592,-0.89868 v -0.0147 q 0,-0.13259 -0.01473,-0.26518 0,-0.1326 -0.02947,-0.26519 -0.0442,-0.23572 -0.147324,-0.5009 -0.103127,-0.26519 -0.309381,-0.48617 -0.486171,-0.51564 -1.370118,-0.51564 -0.913411,0 -1.325919,0.50091 -0.191522,0.22098 -0.279917,0.51563 -0.07366,0.29465 -0.103127,0.55983 -0.01473,0.25046 -0.01473,0.44198 0.01473,0.17679 0.01473,0.17679 h -0.309381 q 0,-0.0147 -0.01473,-0.22099 -0.01473,-0.20625 0.01473,-0.48617 0.02947,-0.27992 0.117859,-0.5893 0.103127,-0.32411 0.324114,-0.5893 0.515635,-0.61876 1.576371,-0.61876 1.031271,0 1.605837,0.61876 0.235719,0.25046 0.353578,0.5451 0.132592,0.29465 0.17679,0.5451 0.05893,0.25046 0.05893,0.44198 0,0.17679 0,0.22098 0,0.53037 -0.176789,1.01654 -0.162057,0.47144 -0.456706,0.92815 -0.279916,0.44197 -0.648227,0.89868 -0.368311,0.44197 -0.751355,0.91341 -0.412508,0.5009 -0.810284,1.01654 -0.383044,0.5009 -0.707157,1.046 -0.309382,0.53037 -0.515636,1.11967 -0.191522,0.57456 -0.220987,1.20806 l 4.03669,-0.0295 v 0.33885 z"
         inkscape:connector-curvature="0" />
      <path
         id="path831"
         style="font-style:normal;font-variant:normal;font-weight:100;font-stretch:condensed;font-size:14.73244286px;font-family:'basic title font';-inkscape-font-specification:'basic title font, Thin Condensed';font-variant-ligatures:normal;font-variant-caps:normal;font-variant-numeric:normal;font-feature-settings:normal;text-align:start;writing-mode:lr-tb;text-anchor:start;fill:#a9a9a9;stroke-width:0.36831108px"
         d="m 29.354188,284.91083 v 9.92967 h -0.147325 -0.162056 v -10.56316 -0.0147 -0.1326 h 0.250451 l 2.725502,5.33315 2.725502,-5.33315 h 0.250451 v 0.1326 0.0147 10.56316 H 34.834657 34.6726 v -9.9444 l -2.548713,5.08269 h -0.206254 z m 5.436271,-0.78082 h 0.01473 0.01473 0.01473 0.01473 0.01473 0.01473 0.01473 z m -5.539398,0 h -0.01473 -0.01473 -0.01473 -0.01473 -0.01473 -0.01473 -0.01473 z"
         inkscape:connector-curvature="0" />
      <path
         id="path833"
         style="font-style:normal;font-variant:normal;font-weight:100;font-stretch:condensed;font-size:14.73244286px;font-family:'basic title font';-inkscape-font-specification:'basic title font, Thin Condensed';font-variant-ligatures:normal;font-variant-caps:normal;font-variant-numeric:normal;font-feature-settings:normal;text-align:start;writing-mode:lr-tb;text-anchor:start;fill:#a9a9a9;stroke-width:0.36831108px"
         d="m 37.874147,294.8405 v -10.71049 h 0.162057 0.162057 v 10.71049 h -0.162057 z"
         inkscape:connector-curvature="0" />
      <path
         id="path835"
         style="font-style:normal;font-variant:normal;font-weight:100;font-stretch:condensed;font-size:14.73244286px;font-family:'basic title font';-inkscape-font-specification:'basic title font, Thin Condensed';font-variant-ligatures:normal;font-variant-caps:normal;font-variant-numeric:normal;font-feature-settings:normal;text-align:start;writing-mode:lr-tb;text-anchor:start;fill:#a9a9a9;stroke-width:0.36831108px"
         d="m 43.664686,290.4355 -0.279916,-0.73662 -0.279917,0.73662 -1.679498,4.405 h -0.338846 l 1.723696,-4.50813 0.397776,-1.046 -1.944683,-5.09743 h 0.324114 l 1.782625,4.81751 1.812091,-4.81751 h 0.324114 l -1.959415,5.09743 0.397776,1.046 1.738428,4.4934 h -0.338846 z"
         inkscape:connector-curvature="0" />
    </g>
  </g>
</svg>
