<?xml version="1.0" encoding="UTF-8"?>
<svg xmlns="http://www.w3.org/2000/svg" xmlns:xlink="http://www.w3.org/1999/xlink" width="128pt" height="96pt" viewBox="0 0 128 96" version="1.1">
<g id="surface1">
<path style="fill-rule:evenodd;fill:rgb(0%,0%,0%);fill-opacity:1;stroke-width:6.613026;stroke-linecap:butt;stroke-linejoin:round;stroke:rgb(0%,0%,0%);stroke-opacity:1;stroke-miterlimit:4;" d="M 294.671068 50.178564 L 418.889128 50.178564 C 429.543984 50.178564 438.176498 58.811078 438.176498 69.465934 L 438.176498 147.563026 C 438.176498 158.217883 429.543984 166.850396 418.889128 166.850396 L 294.671068 166.850396 C 284.016212 166.850396 275.383698 158.217883 275.383698 147.563026 L 275.383698 69.465934 C 275.383698 58.811078 284.016212 50.178564 294.671068 50.178564 Z M 294.671068 50.178564 " transform="matrix(0.676041,0,0,0.676041,-177.19815,-25.360291)"/>
<path style="fill-rule:evenodd;fill:rgb(100%,0%,0%);fill-opacity:1;stroke-width:3.421247;stroke-linecap:butt;stroke-linejoin:miter;stroke:rgb(100%,0%,0%);stroke-opacity:1;stroke-miterlimit:4;" d="M 4.709933 1002.346199 L 31.403634 1019.975918 " transform="matrix(3.802395,0,0,3.802395,-5.264494,-3797.48044)"/>
<path style="fill-rule:evenodd;fill:rgb(100%,0%,0%);fill-opacity:1;stroke-width:3.421247;stroke-linecap:butt;stroke-linejoin:miter;stroke:rgb(100%,0%,0%);stroke-opacity:1;stroke-miterlimit:4;" d="M 31.403634 1002.346199 L 4.709933 1019.975918 " transform="matrix(3.802395,0,0,3.802395,-5.264494,-3797.48044)"/>
<path style="fill:none;stroke-width:6.613026;stroke-linecap:butt;stroke-linejoin:round;stroke:rgb(0%,0%,0%);stroke-opacity:1;stroke-miterlimit:4;" d="M 294.671068 50.178564 L 418.889128 50.178564 C 429.543984 50.178564 438.176498 58.811078 438.176498 69.465934 L 438.176498 147.563026 C 438.176498 158.217883 429.543984 166.850396 418.889128 166.850396 L 294.671068 166.850396 C 284.016212 166.850396 275.383698 158.217883 275.383698 147.563026 L 275.383698 69.465934 C 275.383698 58.811078 284.016212 50.178564 294.671068 50.178564 Z M 294.671068 50.178564 " transform="matrix(0.676041,0,0,0.676041,-177.19815,-25.360291)"/>
</g>
</svg>
