<?xml version="1.0" encoding="UTF-8" standalone="no"?>
<!-- Created with Inkscape (http://www.inkscape.org/) -->

<svg
   xmlns:dc="http://purl.org/dc/elements/1.1/"
   xmlns:cc="http://creativecommons.org/ns#"
   xmlns:rdf="http://www.w3.org/1999/02/22-rdf-syntax-ns#"
   xmlns:svg="http://www.w3.org/2000/svg"
   xmlns="http://www.w3.org/2000/svg"
   xmlns:sodipodi="http://sodipodi.sourceforge.net/DTD/sodipodi-0.dtd"
   xmlns:inkscape="http://www.inkscape.org/namespaces/inkscape"
   width="64"
   height="48"
   id="svg3052"
   version="1.1"
   inkscape:version="0.92.3 (2405546, 2018-03-11)"
   sodipodi:docname="queues.svg">
  <defs
     id="defs3054" />
  <sodipodi:namedview
     id="base"
     pagecolor="#ffffff"
     bordercolor="#666666"
     borderopacity="1.0"
     inkscape:pageopacity="0.0"
     inkscape:pageshadow="2"
     inkscape:zoom="1.3861428"
     inkscape:cx="123.21563"
     inkscape:cy="-37.67806"
     inkscape:document-units="px"
     inkscape:current-layer="layer1"
     showgrid="false"
     inkscape:window-width="1912"
     inkscape:window-height="1172"
     inkscape:window-x="1920"
     inkscape:window-y="0"
     inkscape:window-maximized="0"
     showguides="true"
     inkscape:guide-bbox="true"
     inkscape:snap-to-guides="true"
     inkscape:snap-global="true" />
  <metadata
     id="metadata3057">
    <rdf:RDF>
      <cc:Work
         rdf:about="">
        <dc:format>image/svg+xml</dc:format>
        <dc:type
           rdf:resource="http://purl.org/dc/dcmitype/StillImage" />
        <dc:title></dc:title>
      </cc:Work>
    </rdf:RDF>
  </metadata>
  <g
     inkscape:label="Layer 1"
     inkscape:groupmode="layer"
     id="layer1"
     transform="translate(0,-1004.3622)">
    <path
       style="fill:#000000;stroke-width:1"
       d="m 28.926081,1049.1393 c -0.314305,-0.014 -1.668679,-0.061 -3.009718,-0.1049 -3.011304,-0.099 -5.545138,-0.2265 -12.191264,-0.6106 -2.849707,-0.1646 -6.0041962,-0.3353 -7.0099775,-0.3792 -2.5925516,-0.1136 -3.8980903,-0.3241 -4.7791411,-0.7723 -0.76673,-0.3902 -1.13796421,-1.0081 -0.98071311,-1.6326 0.25553541,-1.0149 1.45461501,-2.0426 2.97869351,-2.5531 L 4.60413,1042.862 h 2.8270388 c 1.5548718,0 2.8270392,-0.021 2.8270392,-0.047 0,-0.025 -0.09974,-0.2236 -0.221623,-0.4383 -0.8404451,-1.4798 -1.6123256,-3.9768 -1.9224982,-6.2192 -0.147639,-1.0673 -0.1262569,-4.1304 0.037487,-5.3717 0.6063388,-4.5965 2.2632242,-8.8956 4.4569722,-11.5642 2.655241,-3.2297 6.323163,-5.2174 11.032168,-5.9784 1.164906,-0.1881 4.64481,-0.1899 5.875778,0 4.512008,0.6858 8.261326,2.5308 10.714806,5.2728 1.301526,1.4548 2.390445,3.1014 3.480125,5.2627 0.855488,1.6967 1.272014,2.6931 2.548227,6.0955 1.070377,2.8538 1.301627,3.4044 1.360081,3.2385 0.02214,-0.062 0.198825,-0.9031 0.39264,-1.8669 1.034222,-5.1433 2.09263,-7.9906 3.465649,-9.3234 0.480983,-0.467 1.61874,-1.1632 2.392976,-1.4646 0.289642,-0.1123 0.552485,-0.2516 0.584107,-0.3086 0.233143,-0.4217 0.447039,-4.1172 0.553963,-9.5708 l 0.02726,-1.3898 -0.185224,-0.1214 c -0.101878,-0.066 -0.252024,-0.2723 -0.333668,-0.457 -0.48682,-1.1005 1.005649,-1.93 1.756068,-0.9763 0.338917,0.4309 0.132633,1.265 -0.367628,1.4865 l -0.235656,0.1037 0.03698,0.6861 c 0.02034,0.3774 0.05591,2.7699 0.07904,5.3169 0.02312,2.547 0.07298,4.7122 0.110781,4.8116 0.08558,0.2249 0.548699,0.2997 1.335661,0.2153 l 0.533367,-0.056 0.164186,-0.4954 c 0.266554,-0.8039 1.050466,-4.3177 1.932755,-8.6634 0.332259,-1.6364 0.367026,-1.8905 0.266473,-1.9467 -0.330522,-0.185 -0.466202,-0.9644 -0.230492,-1.3243 0.553573,-0.8447 1.867853,-0.4954 1.867053,0.4964 -7.48e-4,0.5317 -0.247025,0.8605 -0.766839,1.0227 -0.21426,0.066 -1.550896,8.5132 -1.642208,10.3773 l -0.04107,0.8382 0.402268,0.2666 c 1.894544,1.256 2.83407,2.9123 2.70274,4.7648 -0.102463,1.4452 -0.575579,2.3237 -2.187714,4.0627 -1.385964,1.4951 -1.644364,1.8183 -1.956339,2.4455 l -0.282236,0.5678 -0.0058,1.6039 c -0.0042,1.1514 -0.04175,1.7974 -0.133045,2.2897 -0.602858,3.2506 -2.165053,6.2482 -4.470825,8.5788 -0.815618,0.8244 -2.101501,1.8397 -2.739719,2.1629 -1.263595,0.6404 -3.715474,1.2096 -6.566911,1.5246 -2.587941,0.2859 -4.393504,0.3577 -9.513717,0.3785 -2.786846,0.012 -5.324152,0.012 -5.638458,0 z"
       id="path4938"
       inkscape:connector-curvature="0" />
  </g>
</svg>
