<?xml version="1.0" encoding="UTF-8" standalone="no"?>
<!-- Created with Inkscape (http://www.inkscape.org/) -->

<svg
   xmlns:dc="http://purl.org/dc/elements/1.1/"
   xmlns:cc="http://creativecommons.org/ns#"
   xmlns:rdf="http://www.w3.org/1999/02/22-rdf-syntax-ns#"
   xmlns:svg="http://www.w3.org/2000/svg"
   xmlns="http://www.w3.org/2000/svg"
   xmlns:sodipodi="http://sodipodi.sourceforge.net/DTD/sodipodi-0.dtd"
   xmlns:inkscape="http://www.inkscape.org/namespaces/inkscape"
   width="64"
   height="48"
   id="svg3052"
   version="1.1"
   inkscape:version="0.92.3 (2405546, 2018-03-11)"
   sodipodi:docname="queues.svg">
  <defs
     id="defs3054" />
  <sodipodi:namedview
     id="base"
     pagecolor="#ffffff"
     bordercolor="#666666"
     borderopacity="1.0"
     inkscape:pageopacity="0.0"
     inkscape:pageshadow="2"
     inkscape:zoom="15.682416"
     inkscape:cx="9.3889164"
     inkscape:cy="20.667125"
     inkscape:document-units="px"
     inkscape:current-layer="layer1"
     showgrid="false"
     inkscape:window-width="1912"
     inkscape:window-height="1172"
     inkscape:window-x="0"
     inkscape:window-y="0"
     inkscape:window-maximized="0"
     showguides="true"
     inkscape:guide-bbox="true"
     inkscape:snap-to-guides="true"
     inkscape:snap-global="true" />
  <metadata
     id="metadata3057">
    <rdf:RDF>
      <cc:Work
         rdf:about="">
        <dc:format>image/svg+xml</dc:format>
        <dc:type
           rdf:resource="http://purl.org/dc/dcmitype/StillImage" />
        <dc:title></dc:title>
      </cc:Work>
    </rdf:RDF>
  </metadata>
  <g
     inkscape:label="Layer 1"
     inkscape:groupmode="layer"
     id="layer1"
     transform="translate(0,-1004.3622)">
    <path
       style="fill:#808080;stroke-width:0.0287325"
       d="m 26.394218,1049.5605 c -3.604113,-0.082 -7.122971,-0.3352 -9.976515,-0.718 -4.678786,-0.6275 -7.6349556,-1.5903 -7.9113647,-2.5766 -0.2126555,-0.7588 1.1636374,-1.1247 5.1234647,-1.3622 0.32791,-0.019 0.595329,-0.043 0.594262,-0.052 -0.001,-0.01 -0.169432,-0.1509 -0.374151,-0.3158 -0.828117,-0.6674 -1.799569,-1.6728 -2.458614,-2.5446 -1.4434867,-1.9094 -2.3494857,-3.9789 -2.8025372,-6.4015 l -0.092438,-0.4943 -0.00975,-1.9238 c -0.00933,-1.8399 -0.00714,-1.9414 0.051033,-2.3273 0.5617032,-3.7291 2.5048162,-7.0878 5.4716192,-9.4577 0.825146,-0.6591 1.712506,-1.2197 2.702134,-1.7071 1.748755,-0.8613 3.520816,-1.345 5.475663,-1.4947 0.591593,-0.045 2.137485,-0.021 2.698237,0.043 1.45179,0.1648 2.89557,0.5405 4.195444,1.0915 3.322786,1.4087 6.038028,3.9909 7.615835,7.2425 0.924725,1.9058 1.419982,3.9259 1.481198,6.0418 0.0097,0.336 0.0043,0.7393 -0.01247,0.9255 -0.01632,0.1816 -0.02572,0.3341 -0.02086,0.339 0.01349,0.013 0.229441,-0.6064 0.389482,-1.1178 0.787899,-2.5183 1.225476,-5.2131 1.280138,-7.8837 0.01882,-0.9196 0.05301,-1.3363 0.14593,-1.7787 0.245333,-1.1682 0.802252,-2.1904 1.661417,-3.0493 0.939374,-0.9392 2.100572,-1.5224 3.43459,-1.7249 0.442291,-0.067 1.301238,-0.067 1.737337,0 1.329108,0.2054 2.475496,0.783 3.423102,1.7246 1.831855,1.8201 2.308798,4.5603 1.205402,6.9253 -0.529589,1.135 -1.535408,2.1807 -2.643375,2.7481 l -0.237646,0.1217 -0.01999,0.9355 c -0.04809,2.2544 -0.212004,3.9652 -0.53692,5.6045 -0.609611,3.0759 -1.737125,5.565 -3.442619,7.5998 -0.317468,0.3787 -1.116408,1.1844 -1.496591,1.5093 -2.71129,2.3161 -6.343548,3.6418 -10.975815,4.0061 -1.296825,0.1019 -3.242443,0.1262 -5.67467,0.071 z m -4.726497,-5.5734 c 0.969087,-0.2526 1.433772,-0.4538 2.160035,-0.9349 1.290141,-0.8547 2.35792,-2.0967 3.053533,-3.5522 0.593081,-1.2408 0.810767,-2.2895 0.737191,-3.5513 -0.08876,-1.5222 -0.402054,-2.6096 -1.019733,-3.5393 -0.269882,-0.4061 -0.815176,-0.953 -1.212302,-1.2156 -0.833233,-0.5512 -1.842822,-0.8162 -2.808774,-0.7374 -1.084744,0.088 -1.654961,0.4838 -1.847356,1.2807 -0.07536,0.3121 -0.07013,0.8636 0.01065,1.1211 0.122917,0.3919 0.393362,0.7001 0.768729,0.8763 0.251872,0.1182 0.470882,0.1657 0.905798,0.1964 0.43711,0.031 0.538651,0.055 0.805213,0.1888 0.623892,0.3141 0.974348,0.9255 0.93826,1.637 -0.0371,0.7315 -0.483157,1.3189 -1.17746,1.5507 -0.286001,0.096 -0.579888,0.1174 -1.012091,0.075 -0.691669,-0.068 -1.2706,-0.2285 -1.867613,-0.5197 -1.556992,-0.7592 -2.59489,-2.1392 -2.863439,-3.807 -0.05473,-0.3399 -0.04546,-1.1712 0.01698,-1.5228 0.37743,-2.1254 2.044973,-3.8639 4.212289,-4.3915 0.957885,-0.2333 2.0087,-0.2338 3.111747,0 1.538315,0.3237 3.099757,1.2251 4.150587,2.3962 1.071354,1.1939 1.781609,2.6734 2.14486,4.4678 0.232624,1.1491 0.301056,2.5724 0.173259,3.6035 -0.19633,1.5841 -0.80035,3.1862 -1.750776,4.6439 -0.120587,0.185 -0.214408,0.3411 -0.208496,0.347 0.0059,0.01 0.199932,-0.1174 0.431151,-0.274 2.742624,-1.8583 4.474662,-4.6695 4.896087,-7.9468 0.0645,-0.5016 0.07362,-2.0656 0.01483,-2.5428 -0.163127,-1.3239 -0.48772,-2.4688 -1.01976,-3.5967 -0.909444,-1.9281 -2.472139,-3.6597 -4.308491,-4.7741 -0.450718,-0.2736 -1.396414,-0.7334 -1.869274,-0.909 -2.879206,-1.069 -6.061893,-0.9286 -8.807692,0.3885 -1.584497,0.7601 -3.015407,1.9266 -4.069126,3.3172 -1.25305,1.6536 -2.007706,3.567 -2.23253,5.6603 -0.04964,0.4622 -0.04945,1.8589 3.21e-4,2.2842 0.293443,2.5079 1.226961,4.5958 2.87779,6.4365 1.330132,1.483 3.238941,2.672 5.150977,3.2085 0.296942,0.083 0.973489,0.2467 1.040545,0.2511 0.0158,0 0.229142,-0.05 0.474087,-0.1142 z m 27.396436,-26.789 c -0.282852,-0.1456 -0.799241,-0.3274 -1.278592,-0.4504 -0.134326,-0.034 -0.254126,-0.071 -0.266225,-0.082 -0.02326,-0.021 0.113083,-1.9565 0.209561,-2.9752 0.218592,-2.3082 0.566081,-3.7304 1.134104,-4.642 0.351398,-0.5638 0.856109,-0.9541 1.466805,-1.1342 0.319964,-0.094 0.869636,-0.1269 1.211601,-0.072 0.831053,0.1339 1.60929,0.7379 1.977418,1.5346 0.298632,0.6464 0.304452,1.4059 0.01568,2.0428 -0.30663,0.6762 -0.903916,1.1798 -1.640254,1.383 -0.142857,0.039 -0.338472,0.055 -0.833172,0.068 l -0.646484,0.016 -0.160212,0.3205 c -0.513966,1.028 -0.758577,2.0547 -0.835818,3.5081 -0.01866,0.3516 -0.0414,0.6376 -0.05054,0.6355 -0.0091,0 -0.145845,-0.071 -0.303873,-0.1516 z m -5.673369,-0.544 c -0.04407,-0.097 -0.204038,-0.444 -0.355491,-0.7704 -0.793476,-1.7103 -1.171345,-2.859 -1.373728,-4.1761 -0.08251,-0.5369 -0.105367,-1.4761 -0.04321,-1.7756 0.198411,-0.9562 0.952454,-1.7623 1.906422,-2.0382 0.188459,-0.054 0.292043,-0.065 0.654857,-0.064 0.510254,0 0.666045,0.036 1.091835,0.2431 0.87551,0.4273 1.4572,1.2818 1.501092,2.2051 0.03482,0.7325 -0.195104,1.3692 -0.695122,1.925 -0.276467,0.3074 -0.803747,0.646 -1.198841,0.7701 l -0.163014,0.051 -0.02058,0.2469 c -0.05216,0.6257 0.04522,1.3135 0.374827,2.6471 0.07139,0.2889 0.129804,0.5406 0.129804,0.5594 0,0.023 -0.0923,0.04 -0.28014,0.051 -0.297194,0.018 -0.813146,0.1175 -1.209156,0.2327 l -0.239435,0.07 z"
       id="path9366"
       inkscape:connector-curvature="0" />
  </g>
</svg>
