<?xml version="1.0" encoding="UTF-8" standalone="no"?>
<!-- Created with Inkscape (http://www.inkscape.org/) -->

<svg
   xmlns:dc="http://purl.org/dc/elements/1.1/"
   xmlns:cc="http://creativecommons.org/ns#"
   xmlns:rdf="http://www.w3.org/1999/02/22-rdf-syntax-ns#"
   xmlns:svg="http://www.w3.org/2000/svg"
   xmlns="http://www.w3.org/2000/svg"
   xmlns:sodipodi="http://sodipodi.sourceforge.net/DTD/sodipodi-0.dtd"
   xmlns:inkscape="http://www.inkscape.org/namespaces/inkscape"
   width="32"
   height="24"
   id="svg3052"
   version="1.1"
   inkscape:version="0.92.3 (2405546, 2018-03-11)"
   sodipodi:docname="queues.svg">
  <defs
     id="defs3054" />
  <sodipodi:namedview
     id="base"
     pagecolor="#ffffff"
     bordercolor="#666666"
     borderopacity="1.0"
     inkscape:pageopacity="0.0"
     inkscape:pageshadow="2"
     inkscape:zoom="7.841208"
     inkscape:cx="2.0340265"
     inkscape:cy="15.44345"
     inkscape:document-units="px"
     inkscape:current-layer="layer1"
     showgrid="false"
     inkscape:window-width="1592"
     inkscape:window-height="855"
     inkscape:window-x="0"
     inkscape:window-y="20"
     inkscape:window-maximized="0"
     showguides="true"
     inkscape:guide-bbox="true"
     inkscape:snap-to-guides="true"
     inkscape:snap-global="true" />
  <metadata
     id="metadata3057">
    <rdf:RDF>
      <cc:Work
         rdf:about="">
        <dc:format>image/svg+xml</dc:format>
        <dc:type
           rdf:resource="http://purl.org/dc/dcmitype/StillImage" />
        <dc:title></dc:title>
      </cc:Work>
    </rdf:RDF>
  </metadata>
  <g
     inkscape:label="Layer 1"
     inkscape:groupmode="layer"
     id="layer1"
     transform="translate(0,-1028.3622)">
    <path
       style="fill:#808080;stroke-width:0.0287325"
       d="m 13.68623,1050.5854 c -1.766569,-0.04 -3.49135,-0.1643 -4.8900246,-0.3519 -2.293324,-0.3076 -3.7423007,-0.7795 -3.8777836,-1.263 -0.1042339,-0.3719 0.570361,-0.5512 2.5112846,-0.6677 0.160726,-0.01 0.291803,-0.021 0.29128,-0.025 -4.91e-4,0 -0.08305,-0.074 -0.183392,-0.1548 -0.405904,-0.3272 -0.882065,-0.82 -1.2050983,-1.2473 -0.7075302,-0.9359 -1.1516089,-1.9503 -1.3736737,-3.1377 l -0.045309,-0.2423 -0.00478,-0.9429 c -0.00457,-0.9019 -0.0035,-0.9516 0.025014,-1.1408 0.2753209,-1.8278 1.2277447,-3.4741 2.681934,-4.6357 0.404448,-0.3231 0.839391,-0.5978 1.324461,-0.8367 0.857158,-0.4222 1.7257396,-0.6593 2.6839156,-0.7327 0.289971,-0.022 1.047696,-0.01 1.32255,0.021 0.7116,0.081 1.419274,0.2649 2.056412,0.535 1.628676,0.6905 2.959561,1.9562 3.732929,3.5499 0.453257,0.9342 0.696009,1.9243 0.726014,2.9615 0.0048,0.1646 0.0021,0.3623 -0.0061,0.4536 -0.008,0.089 -0.01261,0.1637 -0.01022,0.1661 0.0066,0.01 0.112461,-0.2972 0.190906,-0.5478 0.386191,-1.2344 0.600671,-2.5553 0.627464,-3.8643 0.0092,-0.4507 0.02598,-0.655 0.07153,-0.8718 0.120251,-0.5726 0.393227,-1.0736 0.814349,-1.4946 0.460438,-0.4604 1.029603,-0.7462 1.683477,-0.8455 0.216791,-0.033 0.637807,-0.033 0.851562,0 0.651467,0.1007 1.213373,0.3838 1.677846,0.8453 0.89789,0.8922 1.131665,2.2353 0.590832,3.3945 -0.25958,0.5563 -0.752586,1.0689 -1.29566,1.347 l -0.116483,0.06 -0.0098,0.4586 c -0.02357,1.105 -0.103915,1.9435 -0.263173,2.747 -0.298803,1.5077 -0.851458,2.7277 -1.687412,3.7251 -0.155608,0.1856 -0.547212,0.5805 -0.73356,0.7398 -1.328948,1.1352 -3.109313,1.785 -5.379835,1.9636 -0.635643,0.05 -1.589295,0.062 -2.78146,0.035 z m -2.31671,-2.7318 c 0.475002,-0.1238 0.702769,-0.2225 1.058749,-0.4583 0.632367,-0.4189 1.155743,-1.0277 1.4967,-1.7411 0.290701,-0.6082 0.397401,-1.1222 0.361337,-1.7407 -0.04351,-0.7461 -0.197068,-1.2791 -0.499826,-1.7348 -0.132283,-0.199 -0.399561,-0.4671 -0.594214,-0.5958 -0.408412,-0.2702 -0.903266,-0.4001 -1.37673,-0.3615 -0.531692,0.043 -0.811185,0.2372 -0.905489,0.6278 -0.03694,0.153 -0.03437,0.4233 0.0052,0.5495 0.06025,0.1921 0.192807,0.3432 0.376795,0.4295 0.123456,0.058 0.230804,0.081 0.44398,0.096 0.214251,0.015 0.264022,0.027 0.394678,0.092 0.305803,0.154 0.47758,0.4537 0.459892,0.8024 -0.01818,0.3586 -0.236822,0.6465 -0.577137,0.7601 -0.140184,0.047 -0.284234,0.058 -0.49608,0.037 -0.339024,-0.033 -0.622789,-0.112 -0.915417,-0.2547 -0.7631646,-0.3721 -1.2718946,-1.0485 -1.4035246,-1.866 -0.02683,-0.1666 -0.02228,-0.5741 0.0083,-0.7464 0.184999,-1.0418 1.0023506,-1.8939 2.0646686,-2.1525 0.46951,-0.1144 0.984571,-0.1146 1.525233,0 0.754011,0.1586 1.519357,0.6005 2.034426,1.1745 0.525128,0.5852 0.873262,1.3104 1.05131,2.1899 0.114022,0.5632 0.147564,1.2609 0.08492,1.7663 -0.09623,0.7764 -0.392294,1.5617 -0.858149,2.2762 -0.05911,0.091 -0.105093,0.1672 -0.102195,0.1701 0.0029,0 0.098,-0.058 0.21133,-0.1343 1.344307,-0.9109 2.193272,-2.2888 2.399835,-3.8952 0.03161,-0.2458 0.03608,-1.0124 0.0073,-1.2463 -0.07996,-0.649 -0.239058,-1.2101 -0.499839,-1.763 -0.445768,-0.945 -1.211728,-1.7938 -2.111823,-2.34 -0.220921,-0.1341 -0.684457,-0.3595 -0.916231,-0.4456 -1.411253,-0.5239 -2.971259,-0.4551 -4.3171216,0.1905 -0.776647,0.3725 -1.478013,0.9443 -1.994497,1.6259 -0.614187,0.8105 -0.984084,1.7484 -1.094282,2.7744 -0.02433,0.2266 -0.02424,0.9112 1.57e-4,1.1196 0.143832,1.2293 0.601399,2.2527 1.410559,3.1549 0.651969,0.7269 1.587579,1.3097 2.5247696,1.5726 0.145547,0.041 0.477159,0.121 0.510027,0.1231 0.0077,0 0.112315,-0.024 0.232375,-0.056 z m 13.428462,-13.1308 c -0.138641,-0.071 -0.391751,-0.1604 -0.626707,-0.2207 -0.06584,-0.017 -0.12456,-0.035 -0.130491,-0.04 -0.0114,-0.01 0.05543,-0.959 0.102717,-1.4583 0.107144,-1.1314 0.277467,-1.8285 0.555885,-2.2753 0.172239,-0.2764 0.419625,-0.4677 0.71896,-0.5559 0.156832,-0.046 0.426255,-0.062 0.593871,-0.035 0.407343,0.066 0.788799,0.3616 0.969238,0.7522 0.146376,0.3168 0.149229,0.6891 0.0077,1.0012 -0.150296,0.3315 -0.443058,0.5783 -0.803977,0.6779 -0.07002,0.019 -0.165903,0.027 -0.408382,0.033 l -0.316876,0.01 -0.07853,0.1571 c -0.251922,0.5039 -0.371819,1.0071 -0.409679,1.7195 -0.0091,0.1723 -0.02029,0.3125 -0.02477,0.3115 -0.0045,0 -0.07149,-0.035 -0.148945,-0.074 z m -2.780822,-0.2666 c -0.0216,-0.047 -0.10001,-0.2176 -0.174246,-0.3776 -0.388925,-0.8383 -0.574139,-1.4014 -0.673337,-2.0469 -0.04044,-0.2632 -0.05165,-0.7236 -0.02118,-0.8704 0.09725,-0.4686 0.466849,-0.8638 0.93444,-0.999 0.09237,-0.026 0.143146,-0.032 0.32098,-0.031 0.250103,0 0.326465,0.018 0.535167,0.1192 0.429134,0.2094 0.714252,0.6283 0.735766,1.0808 0.01707,0.3591 -0.09563,0.6711 -0.340717,0.9436 -0.135511,0.1506 -0.393959,0.3166 -0.587616,0.3774 l -0.0799,0.025 -0.01009,0.1211 c -0.02557,0.3066 0.02216,0.6438 0.183723,1.2974 0.03499,0.1416 0.06362,0.265 0.06362,0.2742 0,0.011 -0.04524,0.02 -0.137311,0.025 -0.145671,0.01 -0.398567,0.058 -0.592672,0.1141 l -0.11736,0.034 z"
       id="path9366"
       inkscape:connector-curvature="0" />
  </g>
</svg>
