<?xml version="1.0" encoding="UTF-8"?>
<svg xmlns="http://www.w3.org/2000/svg" xmlns:xlink="http://www.w3.org/1999/xlink" width="128pt" height="96pt" viewBox="0 0 128 96" version="1.1">
<g id="surface1">
<path style="fill-rule:evenodd;fill:rgb(0%,100%,0%);fill-opacity:1;stroke-width:6.613026;stroke-linecap:butt;stroke-linejoin:round;stroke:rgb(0%,0%,0%);stroke-opacity:1;stroke-miterlimit:4;" d="M 294.66911 50.178085 L 418.891086 50.178085 C 429.540659 50.178085 438.179031 58.810694 438.179031 69.466031 L 438.179031 147.562904 C 438.179031 158.218241 429.540659 166.85085 418.891086 166.85085 L 294.66911 166.85085 C 284.019537 166.85085 275.381165 158.218241 275.381165 147.562904 L 275.381165 69.466031 C 275.381165 58.810694 284.019537 50.178085 294.66911 50.178085 Z M 294.66911 50.178085 " transform="matrix(0.677844,0,0,0.677844,-177.841262,-25.555885)"/>
<path style="fill:none;stroke-width:6.613026;stroke-linecap:butt;stroke-linejoin:round;stroke:rgb(0%,0%,0%);stroke-opacity:1;stroke-miterlimit:4;" d="M 294.66911 50.178085 L 418.891086 50.178085 C 429.540659 50.178085 438.179031 58.810694 438.179031 69.466031 L 438.179031 147.562904 C 438.179031 158.218241 429.540659 166.85085 418.891086 166.85085 L 294.66911 166.85085 C 284.019537 166.85085 275.381165 158.218241 275.381165 147.562904 L 275.381165 69.466031 C 275.381165 58.810694 284.019537 50.178085 294.66911 50.178085 Z M 294.66911 50.178085 " transform="matrix(0.677844,0,0,0.677844,-177.841262,-25.555885)"/>
<path style=" stroke:none;fill-rule:nonzero;fill:rgb(0%,0%,0%);fill-opacity:1;" d="M 16.9375 67.832031 L 23.273438 27.949219 L 34.445312 27.949219 L 29.695312 57.941406 L 37.859375 57.941406 L 36.304688 67.832031 Z M 16.9375 67.832031 "/>
<path style=" stroke:none;fill-rule:nonzero;fill:rgb(0%,0%,0%);fill-opacity:1;" d="M 39.855469 67.832031 L 46.164062 27.949219 L 57.308594 27.949219 L 50.972656 67.832031 Z M 39.855469 67.832031 "/>
<path style=" stroke:none;fill-rule:nonzero;fill:rgb(0%,0%,0%);fill-opacity:1;" d="M 59.632812 27.949219 L 70.722656 27.949219 L 70.777344 54.007812 L 79.050781 27.949219 L 90.140625 27.949219 L 74.683594 67.832031 L 62.445312 67.832031 Z M 59.632812 27.949219 "/>
<path style=" stroke:none;fill-rule:nonzero;fill:rgb(0%,0%,0%);fill-opacity:1;" d="M 85.773438 67.832031 L 92.109375 27.949219 L 111.859375 27.949219 L 110.328125 37.621094 L 101.722656 37.621094 L 100.878906 42.699219 L 108.660156 42.699219 L 107.214844 52.042969 L 99.429688 52.042969 L 98.527344 57.53125 L 107.160156 57.53125 L 105.519531 67.832031 Z M 85.773438 67.832031 "/>
</g>
</svg>
