<?xml version="1.0" encoding="UTF-8"?>
<svg xmlns="http://www.w3.org/2000/svg" xmlns:xlink="http://www.w3.org/1999/xlink" width="128pt" height="96pt" viewBox="0 0 128 96" version="1.1">
<g id="surface1">
<path style=" stroke:none;fill-rule:evenodd;fill:rgb(50.196078%,50.196078%,50.196078%);fill-opacity:1;" d="M 49.285156 57.910156 L 76.449219 73.214844 L 50.050781 88.007812 L 49.414062 74.871094 C 61.335938 71.175781 55.445312 65.117188 49.160156 62.882812 Z M 40.105469 87.242188 C 38.285156 80.6875 38.835938 77.171875 39.339844 73.597656 C 28.046875 63.792969 42.246094 52.496094 49.03125 47.964844 C 45.246094 44.367188 44.332031 37.9375 46.671875 28.429688 C 45.632812 23.273438 47.898438 18.140625 51.710938 15.316406 C 53.238281 15.207031 57.886719 17.867188 60.382812 24.625 L 64.460938 24.625 C 67.394531 16.316406 71.03125 15.59375 73.261719 15.570312 C 76.535156 17.203125 78.738281 24.109375 77.816406 29.207031 C 80.207031 35.273438 79.265625 41.777344 75.683594 47.453125 L 79.765625 51.535156 C 84.710938 51.84375 88.542969 50.359375 87.035156 38.652344 C 85.832031 29.292969 95.324219 31.441406 95.707031 39.164062 C 96.09375 46.886719 96.253906 42.828125 94.941406 51.40625 C 93.628906 59.984375 83.847656 61.355469 83.847656 61.355469 C 86.558594 70.257812 86.980469 77.261719 86.332031 86.371094 C 67.265625 98.574219 45.433594 91.148438 40.105469 87.242188 Z M 20.273438 64.191406 C 20.40625 59.527344 27.832031 54.636719 23.652344 51.660156 C 15.6875 45.992188 29.621094 36.085938 34.363281 49.238281 C 37.265625 57.285156 25.199219 65.660156 26.203125 75 C 23.78125 71.472656 21.292969 67.953125 20.273438 64.191406 Z M 108.597656 47.738281 C 108.597656 73.246094 87.917969 93.921875 62.414062 93.921875 C 36.910156 93.921875 16.234375 73.246094 16.234375 47.738281 C 16.234375 22.234375 36.910156 1.558594 62.414062 1.558594 C 87.917969 1.558594 108.597656 22.234375 108.597656 47.738281 Z M 108.597656 47.738281 "/>
</g>
</svg>
