<?xml version="1.0" encoding="UTF-8" standalone="no"?>
<!-- Created with Inkscape (http://www.inkscape.org/) -->

<svg
   xmlns:dc="http://purl.org/dc/elements/1.1/"
   xmlns:cc="http://creativecommons.org/ns#"
   xmlns:rdf="http://www.w3.org/1999/02/22-rdf-syntax-ns#"
   xmlns:svg="http://www.w3.org/2000/svg"
   xmlns="http://www.w3.org/2000/svg"
   xmlns:sodipodi="http://sodipodi.sourceforge.net/DTD/sodipodi-0.dtd"
   xmlns:inkscape="http://www.inkscape.org/namespaces/inkscape"
   width="32"
   height="24"
   id="svg3052"
   version="1.1"
   inkscape:version="0.92.3 (2405546, 2018-03-11)"
   sodipodi:docname="voc2.svg">
  <defs
     id="defs3054" />
  <sodipodi:namedview
     id="base"
     pagecolor="#ffffff"
     bordercolor="#666666"
     borderopacity="1.0"
     inkscape:pageopacity="0.0"
     inkscape:pageshadow="2"
     inkscape:zoom="2.7722855"
     inkscape:cx="70.671935"
     inkscape:cy="-13.486669"
     inkscape:document-units="px"
     inkscape:current-layer="layer1"
     showgrid="false"
     inkscape:window-width="1592"
     inkscape:window-height="871"
     inkscape:window-x="0"
     inkscape:window-y="0"
     inkscape:window-maximized="0"
     showguides="true"
     inkscape:guide-bbox="true"
     inkscape:snap-to-guides="true"
     inkscape:snap-global="true" />
  <metadata
     id="metadata3057">
    <rdf:RDF>
      <cc:Work
         rdf:about="">
        <dc:format>image/svg+xml</dc:format>
        <dc:type
           rdf:resource="http://purl.org/dc/dcmitype/StillImage" />
        <dc:title></dc:title>
      </cc:Work>
    </rdf:RDF>
  </metadata>
  <g
     inkscape:label="Layer 1"
     inkscape:groupmode="layer"
     id="layer1"
     transform="translate(0,-1028.3622)">
    <path
       id="path35556"
       style="fill:#808080;fill-rule:evenodd;stroke:none;stroke-width:0.1;stroke-linecap:butt;stroke-linejoin:miter;stroke-miterlimit:4;stroke-dasharray:none;stroke-opacity:1"
       d="m 12.871038,1042.7866 6.474333,3.6475 -6.291954,3.5259 -0.151981,-3.1308 c 2.841642,-0.8807 1.437324,-2.325 -0.06079,-2.8572 z m -2.188507,6.9911 c -0.433123,-1.5629 -0.301883,-2.4001 -0.182374,-3.2524 -2.6916401,-2.3368 0.692833,-5.0287 2.31009,-6.1096 -0.902406,-0.8571 -1.120188,-2.3899 -0.561927,-4.6555 -0.248313,-1.2287 0.291591,-2.4524 1.200242,-3.1259 0.364537,-0.026 1.47236,0.6083 2.066925,2.2189 h 0.972668 c 0.699107,-1.9803 1.56539,-2.1525 2.097319,-2.1581 0.780218,0.3893 1.305259,2.0354 1.085628,3.2501 0.569668,1.446 0.345184,2.9963 -0.508105,4.3489 l 0.972669,0.9727 c 1.178676,0.074 2.091667,-0.2801 1.732571,-3.07 -0.09155,-0.7113 -0.73139,-2.4632 -0.31274,-2.5717 0.722385,-0.1871 0.812848,2.0387 1.026537,2.0821 0.252397,0.051 0.23183,-2.2501 0.920265,-2.0407 0.758449,0.2307 -0.13345,1.8818 -0.215767,2.3067 0.634076,-0.1035 0.639473,0.1614 0.648625,0.3452 0.09167,1.8405 0.130468,0.8731 -0.182374,2.918 -0.312846,2.0449 -2.644448,2.3709 -2.644448,2.3709 0.646142,2.1222 0.746433,3.7915 0.592277,5.9628 -4.544363,2.9086 -9.747548,1.1385 -11.018081,0.2076 z m -4.7265654,-5.4941 c 0.031795,-1.1121 1.8015753,-2.2776 0.8054918,-2.9864 -1.8984942,-1.3511 1.4223366,-3.7125 2.5532595,-0.5775 0.6917411,1.9175 -2.184413,3.9136 -1.945343,6.1399 -0.577099,-0.841 -1.1703164,-1.6793 -1.4134083,-2.576 z m 21.0510324,-3.9214 c 0,6.079 -4.928001,11.007 -11.006998,11.007 -6.0789971,0 -11.006998,-4.928 -11.006998,-11.007 0,-6.079 4.9280009,-11.007 11.006998,-11.007 6.078997,0 11.006998,4.928 11.006998,11.007 z"
       inkscape:connector-curvature="0"
       sodipodi:nodetypes="cccccccccccccccccsssscssccccssccsssss" />
  </g>
</svg>
