<?xml version="1.0" encoding="UTF-8" standalone="no"?>
<svg
   viewBox="0 0 47 47"
   version="1.1"
   id="svg888"
   sodipodi:docname="cut.svg"
   width="47"
   height="47"
   inkscape:version="1.1.2 (0a00cf5339, 2022-02-04)"
   xmlns:inkscape="http://www.inkscape.org/namespaces/inkscape"
   xmlns:sodipodi="http://sodipodi.sourceforge.net/DTD/sodipodi-0.dtd"
   xmlns="http://www.w3.org/2000/svg"
   xmlns:svg="http://www.w3.org/2000/svg">
  <defs
     id="defs892" />
  <sodipodi:namedview
     id="namedview890"
     pagecolor="#ffffff"
     bordercolor="#666666"
     borderopacity="1.0"
     inkscape:pageshadow="2"
     inkscape:pageopacity="0.0"
     inkscape:pagecheckerboard="0"
     showgrid="false"
     inkscape:zoom="1.5390625"
     inkscape:cx="220.58883"
     inkscape:cy="217.01523"
     inkscape:window-width="1863"
     inkscape:window-height="1056"
     inkscape:window-x="57"
     inkscape:window-y="24"
     inkscape:window-maximized="1"
     inkscape:current-layer="svg888" />
  <g
     class=""
     transform="matrix(0.09886962,0,0,0.09887157,-1.738417,-1.9307212)"
     id="g886">
    <path
       d="m 187.125,19.53 c -0.733,-0.008 -1.454,0.004 -2.188,0.032 -3.91,0.152 -7.823,0.84 -11.656,2.157 -15.33,5.26 -25.474,19.04 -29.843,35.218 -4.368,16.177 -3.47,35.265 3.125,54.25 1.056,3.038 2.25,5.988 3.532,8.843 l 9.72,28.22 54.686,18.844 c 2.874,-0.326 5.74,-0.97 8.563,-1.938 15.33,-5.262 25.475,-19.04 29.843,-35.22 4.368,-16.176 3.47,-35.264 -3.125,-54.25 -6.595,-18.983 -17.755,-34.555 -31.218,-44.592 -9.465,-7.058 -20.435,-11.42 -31.437,-11.563 z m -1.28,18.657 c 6.724,-0.256 14.112,2.322 21.56,7.876 9.933,7.404 19.25,20.007 24.72,35.75 5.47,15.742 5.93,31.353 2.72,43.25 -3.213,11.896 -9.573,19.556 -17.876,22.406 -8.303,2.848 -18.1,0.716 -28.032,-6.69 -3.308,-2.464 -6.543,-5.523 -9.594,-9.06 l -16.125,-29.69 c -4.522,-14.7 -4.756,-29.12 -1.75,-40.25 3.21,-11.895 9.57,-19.524 17.874,-22.374 2.076,-0.712 4.258,-1.133 6.5,-1.218 z m -111.595,106 c -6.73,0.138 -13.183,1.02 -19.25,2.657 -16.178,4.368 -29.957,14.544 -35.22,29.875 -5.26,15.33 -0.66,31.786 9.376,45.25 10.037,13.46 25.61,24.653 44.594,31.25 18.985,6.595 38.072,7.46 54.25,3.093 13.807,-3.73 25.866,-11.66 32.375,-23.438 l 0.063,0.063 14.343,-25.72 6.595,3.563 c 0.026,0.076 0.036,0.082 0.063,0.157 l 57.937,31.344 0.03,0.032 251.19,136.344 C 504.832,337.497 454.39,269.595 346.97,232.437 L 118.156,153.532 c -2.875,-1.29 -5.845,-2.498 -8.906,-3.56 -11.865,-4.124 -23.785,-6.01 -35,-5.782 z m 0.344,18.72 c 1.773,-0.035 3.597,-0.006 5.437,0.093 6.374,0.345 13.134,1.512 19.94,3.594 l 29.81,16.187 c 3.54,3.057 6.598,6.288 9.064,9.595 7.405,9.932 9.537,19.73 6.687,28.03 -2.85,8.304 -10.51,14.664 -22.405,17.876 -11.896,3.213 -27.507,2.752 -43.25,-2.718 -15.743,-5.47 -28.345,-14.818 -35.75,-24.75 -7.405,-9.93 -9.506,-19.728 -6.656,-28.03 2.85,-8.304 10.478,-14.664 22.374,-17.876 4.46,-1.204 9.43,-1.896 14.75,-2 z m 115.844,74.187 c 12.42,36.016 25.524,74.023 38.593,111.812 37.156,107.42 105.06,157.862 146.22,143.625 L 255.75,272.44 190.437,237.096 Z"
       fill="#ffffff"
       fill-opacity="1"
       id="path884" />
  </g>
</svg>
