<?xml version="1.0" encoding="UTF-8" standalone="no"?>
<!-- Created with Inkscape (http://www.inkscape.org/) -->

<svg
   width="130"
   height="32"
   viewBox="0 0 34.395832 8.4666666"
   version="1.1"
   id="svg1"
   sodipodi:docname="logo.svg"
   inkscape:version="1.3.2 (091e20ef0f, 2023-11-25, custom)"
   xmlns:inkscape="http://www.inkscape.org/namespaces/inkscape"
   xmlns:sodipodi="http://sodipodi.sourceforge.net/DTD/sodipodi-0.dtd"
   xmlns="http://www.w3.org/2000/svg"
   xmlns:svg="http://www.w3.org/2000/svg">
  <sodipodi:namedview
     id="namedview1"
     pagecolor="#000000"
     bordercolor="#666666"
     borderopacity="1.0"
     inkscape:showpageshadow="2"
     inkscape:pageopacity="0.0"
     inkscape:pagecheckerboard="true"
     inkscape:deskcolor="#d1d1d1"
     inkscape:document-units="mm"
     inkscape:zoom="7.5521978"
     inkscape:cx="68.258276"
     inkscape:cy="38.862859"
     inkscape:window-width="1920"
     inkscape:window-height="1061"
     inkscape:window-x="0"
     inkscape:window-y="19"
     inkscape:window-maximized="1"
     inkscape:current-layer="layer1"
     showgrid="false" />
  <defs
     id="defs1" />
  <g
     inkscape:label="Layer 1"
     inkscape:groupmode="layer"
     id="layer1">
    <path
       style="font-size:8.46667px;line-height:1.25;font-family:Roboto;-inkscape-font-specification:Roboto;fill:#808080;stroke-width:0.264583;fill-opacity:1"
       d="M 2.0360455,6.2053068 3.1439887,2.7698562 H 3.9253366 L 2.3212995,7.24297 H 1.7383891 L 0.11781558,2.7698562 H 0.89916355 Z M 4.3966258,4.9650719 q 0,-0.6573244 0.2563152,-1.1823572 0.2604494,-0.5250328 0.7193363,-0.8102868 0.463021,-0.285254 1.0541996,-0.285254 0.9136397,0 1.4758795,0.6325198 0.5663739,0.6325198 0.5663739,1.6825853 v 0.053744 q 0,0.6531904 -0.2521811,1.174089 -0.2480469,0.5167645 -0.7152021,0.8061527 -0.463021,0.2893881 -1.066602,0.2893881 -0.9095055,0 -1.4758795,-0.6325198 Q 4.3966258,6.0606127 4.3966258,5.0188155 Z m 0.7689456,0.090951 q 0,0.7441409 0.3431317,1.1947596 0.3472658,0.4506187 0.926042,0.4506187 0.5829104,0 0.9260421,-0.4547528 0.3431316,-0.4588869 0.3431316,-1.2815761 0,-0.7358726 -0.3513999,-1.1906254 -0.3472657,-0.4588869 -0.926042,-0.4588869 -0.5663739,0 -0.9136397,0.4506186 -0.3472658,0.4506187 -0.3472658,1.2898443 z m 6.0564806,1.6453783 q 0.409278,0 0.715202,-0.248047 0.305925,-0.248047 0.338998,-0.6201174 h 0.72347 q -0.02067,0.3844728 -0.264583,0.7317385 -0.243913,0.3472658 -0.653191,0.5539716 -0.405143,0.2067058 -0.859896,0.2067058 -0.91364,0 -1.4552089,-0.6077151 Q 9.229408,6.106088 9.229408,5.0477543 V 4.9195967 q 0,-0.6531904 0.2397788,-1.1616867 0.2397787,-0.5084963 0.6862632,-0.7896162 0.450619,-0.2811199 1.062468,-0.2811199 0.752409,0 1.248503,0.4506187 0.500228,0.4506186 0.533301,1.1699549 h -0.72347 Q 12.243179,3.8736653 11.945522,3.5966795 11.652,3.3155596 11.217918,3.3155596 q -0.58291,0 -0.905372,0.4216798 -0.3183265,0.4175458 -0.3183265,1.2112961 v 0.1446941 q 0,0.7730797 0.3183265,1.1906254 0.318327,0.4175458 0.909506,0.4175458 z m 3.675229,-5.014683 v 1.0831384 h 0.835091 v 0.5911787 h -0.835091 v 2.7739919 q 0,0.2687176 0.111621,0.4051434 0.111621,0.1322918 0.380339,0.1322918 0.132292,0 0.363802,-0.049609 V 7.24297 q -0.30179,0.082682 -0.587044,0.082682 -0.512631,0 -0.77308,-0.3100587 Q 14.13247,6.7055349 14.13247,6.1350268 V 3.3610349 H 13.318049 V 2.7698562 H 14.13247 V 1.6867178 Z m 1.442807,3.2783541 q 0,-0.6573244 0.256315,-1.1823572 0.260449,-0.5250328 0.719336,-0.8102868 0.463021,-0.285254 1.0542,-0.285254 0.913639,0 1.475879,0.6325198 0.566374,0.6325198 0.566374,1.6825853 v 0.053744 q 0,0.6531904 -0.252181,1.174089 -0.248047,0.5167645 -0.715202,0.8061527 -0.463021,0.2893881 -1.066602,0.2893881 -0.909506,0 -1.475879,-0.6325198 -0.56224,-0.6325198 -0.56224,-1.674317 z m 0.768945,0.090951 q 0,0.7441409 0.343132,1.1947596 0.347266,0.4506187 0.926042,0.4506187 0.58291,0 0.926042,-0.4547528 0.343132,-0.4588869 0.343132,-1.2815761 0,-0.7358726 -0.3514,-1.1906254 -0.347266,-0.4588869 -0.926042,-0.4588869 -0.566374,0 -0.91364,0.4506186 -0.347266,0.4506187 -0.347266,1.2898443 z m 4.981609,-2.2861663 0.02067,0.496094 q 0.49196,-0.5787763 1.327051,-0.5787763 0.938445,0 1.277442,0.7193362 0.223242,-0.322461 0.578776,-0.5208986 0.359668,-0.1984376 0.847494,-0.1984376 1.471746,0 1.49655,1.5585618 V 7.24297 H 26.873815 V 4.291211 q 0,-0.4795575 -0.219108,-0.7152021 -0.219109,-0.2397787 -0.735873,-0.2397787 -0.425814,0 -0.706934,0.2563152 -0.28112,0.252181 -0.326595,0.6821291 V 7.24297 H 24.116359 V 4.3118816 q 0,-0.9756514 -0.954981,-0.9756514 -0.752409,0 -1.029395,0.640788 V 7.24297 H 21.367172 V 2.7698562 Z M 29.623004,7.24297 H 28.858192 V 2.7698562 h 0.764812 z M 28.79618,1.5833649 q 0,-0.1860353 0.111621,-0.3141929 0.115756,-0.1281576 0.338998,-0.1281576 0.223242,0 0.338998,0.1281576 0.115755,0.1281576 0.115755,0.3141929 0,0.1860352 -0.115755,0.3100587 -0.115756,0.1240235 -0.338998,0.1240235 -0.223242,0 -0.338998,-0.1240235 Q 28.79618,1.7694001 28.79618,1.5833649 Z m 3.551205,2.8194672 0.992188,-1.6329759 h 0.892969 L 32.769065,4.9816084 34.278018,7.24297 H 33.393317 L 32.359788,5.5686529 31.326259,7.24297 H 30.437424 L 31.946376,4.9816084 30.482899,2.7698562 H 31.3676 Z"
       id="text1"
       aria-label="voctomix" />
  </g>
</svg>
