<?xml version="1.0" encoding="UTF-8"?>
<svg height="48px" width="48px" viewBox="0 0 48 48" xmlns="http://www.w3.org/2000/svg">
  <path fill="#000000" d="m23.999.909c-12.753 0-23.09 10.337-23.09 23.09 0 12.753 10.337 23.092 23.09 23.092 12.753-1e-6 23.092-10.339 23.092-23.092 0-12.753-10.339-23.09-23.092-23.09zm-5.2754 6.877c.83276.032113 3.0515 1.3829 4.2598 4.6562h2.0391c1.4666-4.1545 3.2845-4.5156 4.4004-4.5273 1.6368.8167 2.7381 4.2702 2.2774 6.8184 1.1951 3.0334.72366 6.2855-1.0664 9.123l2.041 2.041c2.4727.1556 4.3881-.58851 3.6348-6.4414-.6025-4.681 4.1437-3.6052 4.336.25586.19232 3.8611.27348 1.8313-.38282 6.1211-.6563 4.2898-5.5469 4.9746-5.5469 4.9746 1.3555 4.4521 1.5656 7.9528 1.2422 12.508-9.5334 6.1018-20.448 2.3885-23.113.43555-.90863-3.2786-.63353-5.0343-.38282-6.8223-5.6467-4.9021 1.453-10.549 4.8457-12.816-1.8931-1.7981-2.3508-5.0146-1.1797-9.7676-.52092-2.5775.61334-5.1438 2.5196-6.5566.0239-.00169.04931-.00299.07617-.00195zm-12.537 13.709c1.3621-.05688 2.8974.78768 3.7871 3.2539 1.4512 4.0226-4.5816 8.2104-4.0801 12.881-1.2107-1.7643-2.4549-3.5232-2.9649-5.4043.066701-2.333 3.7791-4.7785 1.6895-6.2656-2.4892-1.7714-.70181-4.37 1.5684-4.4648zm11.248 7.5898-.0625 2.4863c3.1428 1.1165 6.0883 4.1465.12695 5.9941l.31836 6.5684 13.199-7.3965z"/>
</svg>
