<?xml version="1.0" encoding="UTF-8"?>
<svg height="32px" width="32px" viewBox="0 0 32 32" xmlns="http://www.w3.org/2000/svg">
  <path fill="#000000" d="m25.871 5.7638c-.15384-.0048-.3355.0123-.45312.046801-.29934.088201-.54651.2803-.71875.55671-.27842.44681-.4495 1.142-.55664 2.2734-.04729.49931-.11296 1.449-.10156 1.459.0059.005.06502.024.13086.041.23496.0603.48831.1497.62695.2207v.002c.07746.039.14394.0742.14844.0742.0045.001.01629-.1382.02539-.3105.03786-.71241.15628-1.2169.4082-1.7207l.07813-.1563.31836-.0098c.24248-.006.33818-.0142.4082-.0332.36092-.099601.65244-.3462.80273-.67771.14153-.3121.14052-.68521-.0059-1.002-.18044-.39061-.56336-.68591-.9707-.75191-.0419-.0068-.08934-.0102-.14062-.0117zm-3.4668.0058c-.17783-.001-.2299.0053-.32227.0313-.46759.1352-.83634.52941-.93359.99801-.03047.1468-.01896.60791.02148.87111.0992.64551.2849 1.2086.67383 2.0469.07424.16.15223.33.17383.377l.03906.0878.11719-.0351c.1941-.0561.44613-.1033.5918-.1133.07481-.0041.11898-.0113.13281-.0195h.002l.002-.002v-.0019h.002v-.002c0-.0092-.02946-.1318-.06445-.2734-.16156-.65361-.20916-.99231-.18359-1.2989l.0098-.121.08008-.0235c.19366-.060801.45238-.2283.58789-.3789.24509-.2725.35691-.58431.33984-.94331-.02151-.45251-.30524-.87071-.73438-1.0801-.2087-.1012-.28505-.1192-.53516-.1192zm-10.779 5.0744c-.95818.0734-1.8284.3121-2.6855.73431-.48507.2389-.91977.51291-1.3242.83601-1.4542 1.1616-2.4063 2.8069-2.6816 4.6348-.028514.1892-.029961.2407-.025391 1.1426l.00586.94141.044922.2422c.22206 1.1874.66552 2.2028 1.373 3.1387.32303.42731.79917.92081 1.2051 1.248.10034.0808.1831.1543.18359.1543.000523.004-.13029.0154-.29102.0254-1.9409.1165-2.616.2941-2.5117.66601.13548.48351 1.5856.95611 3.8789 1.2637 1.3987.1876 3.1221.3116 4.8887.3516v.0019c1.1922.027 2.1456.0149 2.7812-.0351 2.2705-.1786 4.0519-.82971 5.3809-1.9649.18635-.1593.57877-.55461.73438-.74021.83595-.99741 1.3867-2.2169 1.6855-3.7246.15926-.80351.2401-1.6411.26367-2.7461l.0098-.45901.11719-.0606c.54307-.2781 1.0353-.78941 1.2949-1.3457.54083-1.1592.30805-2.5023-.58984-3.3945-.46447-.46151-1.0263-.74501-1.6777-.84571-.21376-.033-.63477-.033-.85156 0-.65387.0993-1.2232.3853-1.6836.84571-.42112.421-.6942.92151-.81445 1.4941-.04555.2168-.06307.42041-.07227.87111-.02679 1.309-.24076 2.6309-.62695 3.8654-.07844.2506-.18481.55691-.19141.54691-.0024-.0024.0018-.0771.0098-.1661.0082-.0913.01261-.2885.0078-.45311-.03-1.0372-.27331-2.0267-.72656-2.9609-.77337-1.5937-2.1037-2.8603-3.7324-3.5508-.63714-.2701-1.345-.45421-2.0566-.53521-.27485-.031-1.0323-.0434-1.3223-.0214zm.28906 1.7988c.73464-.0324 1.478.0818 2.1836.3437.23177.0861.6951.3112.91602.44531.9001.54621 1.6656 1.3949 2.1113 2.3399.26078.55291.42004 1.1147.5 1.7637.02878.2339.0238 1.0003-.0078 1.2461-.20656 1.6063-1.0541 2.9836-2.3984 3.8946-.11333.0763-.20804.1347-.21094.1347-.0029-.0029.04245-.0789.10156-.1699.46586-.71451.76119-1.499.85742-2.2754.06264-.50541.03004-1.2043-.08399-1.7675-.17805-.87951-.52565-1.6043-1.0508-2.1895-.51507-.57401-1.2811-1.0152-2.0352-1.1738-.54066-.1146-1.0559-.1144-1.5254 0-1.0623.2586-1.8795 1.1105-2.0645 2.1523-.03058.1723-.034642.57951-.00781.74611.13163.81751.63918 1.4931 1.4023 1.8652.29263.1427.57699.2229.91602.2559.21185.021.35591.0099.49609-.0371.34032-.1136.55799-.4012.57617-.75981.01769-.3487-.15318-.64871-.45898-.80271-.13066-.065-.18028-.0768-.39453-.0918-.21318-.015-.3199-.0377-.44336-.0957-.18399-.0863-.3167-.2376-.37695-.42971-.03957-.1262-.0428-.3978-.0059-.55081.0943-.39061.37456-.58391.90625-.62691.47346-.0386.96659.0911 1.375.3613.19465.1287.46342.3967.5957.59571.30276.45571.45649.98831.5 1.7344.03606.61851-.07063 1.134-.36133 1.7422-.34096.71341-.86568 1.3213-1.498 1.7402-.35598.2358-.58359.3352-1.0586.45901-.12006.032-.22472.0547-.23242.0547-.03287-.0021-.36422-.0821-.50977-.1231-.93719-.2629-1.8734-.84531-2.5254-1.5722-.80916-.90221-1.2663-1.925-1.4102-3.1543-.024397-.2084-.02433-.89261 0-1.1192.1102-1.026.47956-1.9649 1.0938-2.7754.51648-.68161 1.2194-1.2525 1.9961-1.625.67293-.3228 1.3982-.50271 2.1328-.53511z"/>
</svg>
