<?xml version="1.0" encoding="UTF-8"?>
<svg height="32px" width="32px" viewBox="0 0 32 32" xmlns="http://www.w3.org/2000/svg">
  <path fill="#000000" d="m11.584 6.756c-.65399 0-1.0926.4756-1.4004 1-.30774.5244-.54474 1.1978-.74609 2.0117-.077983.3152-.14987.6512-.21484 1.0058h-1.4805l-3.9355-1.4472a.12947.12947 0 00-.15039.1972c.68708.9573.69151 2.2387.00195 3.1758a.12947.12947 0 00.14844.1992l3.8984-1.4336h1.4023c-.19369 1.2978-.30302 2.798-.30859 4.4063h-1.0566l-3.9355-1.4473a.12947.12947 0 00-.15039.1973c.68708.9573.69151 2.2387.00195 3.1758a.12947.12947 0 00.14844.1992l3.8984-1.4336h1.0977c.024822 1.624.15785 3.1267.375 4.4063h-1.4355l-3.9355-1.4473a.12947.12947 0 00-.15039.1973c.68708.9573.69151 2.2385.00195 3.1757a.12947.12947 0 00.14844.1993l3.8984-1.4336h1.6016c.041239.1982.08524.3898.13086.5742.20135.8139.43835 1.4873.74609 2.0117s.7464 1 1.4004 1h8.2188c.654 0 1.0926-.4756 1.4004-1s.5467-1.1978.74805-2.0117c.04562-.1844.08962-.376.13086-.5742h2.0156c-.05602.4385-.22059.8646-.49414 1.2363a.1296.1296 0 00.14844.1992l4.5312-1.666a.1296.1296 0 000-.2442l-4.5312-1.666a.1296.1296 0 00-.15039.1973c.2728.3801.43902.8114.49609 1.252h-1.8867c.21715-1.2796.35018-2.7823.375-4.4063h1.5117c-.05602.4386-.22059.8645-.49414 1.2363a.1296.1296 0 00.14844.1992l4.5312-1.666a.1296.1296 0 000-.2441l-4.5312-1.666a.1296.1296 0 00-.15039.1972c.2728.3801.43902.8114.49609 1.252h-1.5078c-.0056-1.6083-.1149-3.1085-.30859-4.4063h1.8164c-.05603.4386-.2206.8646-.49414 1.2364a.1296.1296 0 00.14844.1992l4.5312-1.666a.1296.1296 0 000-.2442l-4.5312-1.666a.1296.1296 0 00-.15039.1973c.27281.3801.43903.8114.49609 1.2519h-1.9316c-.064973-.3546-.13686-.6906-.21484-1.0058-.20135-.8139-.4403-1.4873-.74805-2.0117s-.7464-1-1.4004-1zm.01758 1.3261h8.1836v.0039h.002c.01568.0162.12105.0826.27148.3418.20057.3418.42114.921.60352 1.6582.36475 1.4744.60156 3.581.60156 5.9141s-.23682 4.4416-.60156 5.916c-.18237.7372-.40294 1.3165-.60352 1.6582-.15043.2564-.25776.3213-.27344.3379v.0039h.004c.000994 1e-4.0026.0019.0039.002h-8.1994c.0013-1e-4.0049-.0019.0059-.002h.002v-.0039h-.002c-.01568-.0161-.12105-.08-.27148-.3379-.20057-.3417-.41919-.921-.60156-1.6582-.36479-1.4744-.6016-3.5829-.6016-5.916s.23682-4.4397.60156-5.9141c.18237-.7372.40099-1.3164.60156-1.6582.15043-.2563.25776-.3246.27344-.3418v-.0019z"/>
</svg>
